<mxfile host="app.diagrams.net" modified="2024-02-22T01:42:24.883Z" agent="Mozilla/5.0 (Windows NT 10.0; Win64; x64) AppleWebKit/537.36 (KHTML, like Gecko) Chrome/121.0.0.0 Safari/537.36" etag="lJYvVjDNRvJYS3faG6Mn" version="23.1.4" type="device">
  <diagram id="C5RBs43oDa-KdzZeNtuy" name="Page-1">
    <mxGraphModel dx="1075" dy="435" grid="1" gridSize="10" guides="1" tooltips="1" connect="1" arrows="1" fold="1" page="1" pageScale="1" pageWidth="827" pageHeight="1169" math="0" shadow="0">
      <root>
        <mxCell id="WIyWlLk6GJQsqaUBKTNV-0" />
        <mxCell id="WIyWlLk6GJQsqaUBKTNV-1" parent="WIyWlLk6GJQsqaUBKTNV-0" />
        <mxCell id="WIyWlLk6GJQsqaUBKTNV-2" value="" style="rounded=0;html=1;jettySize=auto;orthogonalLoop=1;fontSize=11;endArrow=block;endFill=0;endSize=8;strokeWidth=1;shadow=0;labelBackgroundColor=none;edgeStyle=orthogonalEdgeStyle;entryX=0.5;entryY=0;entryDx=0;entryDy=0;" parent="WIyWlLk6GJQsqaUBKTNV-1" source="WIyWlLk6GJQsqaUBKTNV-3" target="ODqKFoIz9CSUFECiPgLE-3" edge="1">
          <mxGeometry relative="1" as="geometry">
            <mxPoint x="125" y="160" as="targetPoint" />
          </mxGeometry>
        </mxCell>
        <mxCell id="WIyWlLk6GJQsqaUBKTNV-3" value="Start" style="rounded=1;whiteSpace=wrap;html=1;fontSize=12;glass=0;strokeWidth=1;shadow=0;arcSize=50;" parent="WIyWlLk6GJQsqaUBKTNV-1" vertex="1">
          <mxGeometry x="65" y="80" width="120" height="30" as="geometry" />
        </mxCell>
        <mxCell id="ODqKFoIz9CSUFECiPgLE-2" value="Yes" style="edgeStyle=orthogonalEdgeStyle;rounded=0;html=1;jettySize=auto;orthogonalLoop=1;fontSize=11;endArrow=block;endFill=0;endSize=8;strokeWidth=1;shadow=0;labelBackgroundColor=none;" edge="1" parent="WIyWlLk6GJQsqaUBKTNV-1" source="ODqKFoIz9CSUFECiPgLE-3" target="ODqKFoIz9CSUFECiPgLE-4">
          <mxGeometry x="-0.1111" y="-20" relative="1" as="geometry">
            <mxPoint as="offset" />
          </mxGeometry>
        </mxCell>
        <mxCell id="ODqKFoIz9CSUFECiPgLE-3" value="EncoderA != prev_EncoderA" style="rhombus;whiteSpace=wrap;html=1;shadow=0;fontFamily=Helvetica;fontSize=12;align=center;strokeWidth=1;spacing=6;spacingTop=-4;" vertex="1" parent="WIyWlLk6GJQsqaUBKTNV-1">
          <mxGeometry x="70" y="156" width="110" height="88" as="geometry" />
        </mxCell>
        <mxCell id="ODqKFoIz9CSUFECiPgLE-11" style="edgeStyle=orthogonalEdgeStyle;rounded=0;orthogonalLoop=1;jettySize=auto;html=1;exitX=1;exitY=0.5;exitDx=0;exitDy=0;" edge="1" parent="WIyWlLk6GJQsqaUBKTNV-1" source="ODqKFoIz9CSUFECiPgLE-4">
          <mxGeometry relative="1" as="geometry">
            <mxPoint x="125" y="130" as="targetPoint" />
            <Array as="points">
              <mxPoint x="365" y="200" />
              <mxPoint x="365" y="130" />
            </Array>
          </mxGeometry>
        </mxCell>
        <mxCell id="ODqKFoIz9CSUFECiPgLE-4" value="tick_counter++&lt;br&gt;prev_EncoderA = EncoderA" style="rounded=1;whiteSpace=wrap;html=1;fontSize=12;glass=0;strokeWidth=1;shadow=0;" vertex="1" parent="WIyWlLk6GJQsqaUBKTNV-1">
          <mxGeometry x="225" y="175" width="120" height="50" as="geometry" />
        </mxCell>
        <mxCell id="ODqKFoIz9CSUFECiPgLE-5" value="No" style="rounded=0;html=1;jettySize=auto;orthogonalLoop=1;fontSize=11;endArrow=block;endFill=0;endSize=8;strokeWidth=1;shadow=0;labelBackgroundColor=none;edgeStyle=orthogonalEdgeStyle;exitX=0;exitY=0.5;exitDx=0;exitDy=0;" edge="1" parent="WIyWlLk6GJQsqaUBKTNV-1" source="ODqKFoIz9CSUFECiPgLE-3">
          <mxGeometry x="-0.9394" y="20" relative="1" as="geometry">
            <mxPoint as="offset" />
            <mxPoint x="125" y="360" as="sourcePoint" />
            <mxPoint x="125" y="130" as="targetPoint" />
            <Array as="points">
              <mxPoint x="50" y="200" />
              <mxPoint x="50" y="130" />
            </Array>
          </mxGeometry>
        </mxCell>
        <mxCell id="ODqKFoIz9CSUFECiPgLE-12" value="" style="rounded=0;html=1;jettySize=auto;orthogonalLoop=1;fontSize=11;endArrow=block;endFill=0;endSize=8;strokeWidth=1;shadow=0;labelBackgroundColor=none;edgeStyle=orthogonalEdgeStyle;entryX=0.5;entryY=0;entryDx=0;entryDy=0;" edge="1" parent="WIyWlLk6GJQsqaUBKTNV-1" source="ODqKFoIz9CSUFECiPgLE-13" target="ODqKFoIz9CSUFECiPgLE-15">
          <mxGeometry relative="1" as="geometry">
            <mxPoint x="480" y="150" as="targetPoint" />
          </mxGeometry>
        </mxCell>
        <mxCell id="ODqKFoIz9CSUFECiPgLE-13" value="Start" style="rounded=1;whiteSpace=wrap;html=1;fontSize=12;glass=0;strokeWidth=1;shadow=0;arcSize=50;" vertex="1" parent="WIyWlLk6GJQsqaUBKTNV-1">
          <mxGeometry x="415" y="80" width="120" height="30" as="geometry" />
        </mxCell>
        <mxCell id="ODqKFoIz9CSUFECiPgLE-14" value="Yes" style="edgeStyle=orthogonalEdgeStyle;rounded=0;html=1;jettySize=auto;orthogonalLoop=1;fontSize=11;endArrow=block;endFill=0;endSize=8;strokeWidth=1;shadow=0;labelBackgroundColor=none;" edge="1" parent="WIyWlLk6GJQsqaUBKTNV-1" source="ODqKFoIz9CSUFECiPgLE-15" target="ODqKFoIz9CSUFECiPgLE-17">
          <mxGeometry x="-0.1111" y="-20" relative="1" as="geometry">
            <mxPoint as="offset" />
          </mxGeometry>
        </mxCell>
        <mxCell id="ODqKFoIz9CSUFECiPgLE-15" value="EncoderB != prev_EncoderB" style="rhombus;whiteSpace=wrap;html=1;shadow=0;fontFamily=Helvetica;fontSize=12;align=center;strokeWidth=1;spacing=6;spacingTop=-4;" vertex="1" parent="WIyWlLk6GJQsqaUBKTNV-1">
          <mxGeometry x="420" y="156" width="110" height="88" as="geometry" />
        </mxCell>
        <mxCell id="ODqKFoIz9CSUFECiPgLE-16" style="edgeStyle=orthogonalEdgeStyle;rounded=0;orthogonalLoop=1;jettySize=auto;html=1;exitX=1;exitY=0.5;exitDx=0;exitDy=0;" edge="1" parent="WIyWlLk6GJQsqaUBKTNV-1" source="ODqKFoIz9CSUFECiPgLE-17">
          <mxGeometry relative="1" as="geometry">
            <mxPoint x="475" y="130" as="targetPoint" />
            <Array as="points">
              <mxPoint x="715" y="200" />
              <mxPoint x="715" y="130" />
            </Array>
          </mxGeometry>
        </mxCell>
        <mxCell id="ODqKFoIz9CSUFECiPgLE-17" value="tick_counter++&lt;br&gt;prev_EncoderB = EncoderB" style="rounded=1;whiteSpace=wrap;html=1;fontSize=12;glass=0;strokeWidth=1;shadow=0;" vertex="1" parent="WIyWlLk6GJQsqaUBKTNV-1">
          <mxGeometry x="575" y="175" width="120" height="50" as="geometry" />
        </mxCell>
        <mxCell id="ODqKFoIz9CSUFECiPgLE-18" value="No" style="rounded=0;html=1;jettySize=auto;orthogonalLoop=1;fontSize=11;endArrow=block;endFill=0;endSize=8;strokeWidth=1;shadow=0;labelBackgroundColor=none;edgeStyle=orthogonalEdgeStyle;exitX=0;exitY=0.5;exitDx=0;exitDy=0;" edge="1" parent="WIyWlLk6GJQsqaUBKTNV-1" source="ODqKFoIz9CSUFECiPgLE-15">
          <mxGeometry x="-0.9394" y="20" relative="1" as="geometry">
            <mxPoint as="offset" />
            <mxPoint x="475" y="360" as="sourcePoint" />
            <mxPoint x="475" y="130" as="targetPoint" />
            <Array as="points">
              <mxPoint x="400" y="200" />
              <mxPoint x="400" y="130" />
            </Array>
          </mxGeometry>
        </mxCell>
      </root>
    </mxGraphModel>
  </diagram>
</mxfile>
